<svg width="15" height="15" viewBox="0 0 15 15" fill="none" xmlns="http://www.w3.org/2000/svg">
<g clip-path="url(#clip0_4_8)">
<path d="M4.85198 1.88501L4.11698 0.334015L3.21398 0.762015L3.94898 2.31301L4.85198 1.88501ZM2.39798 3.00202L1.66298 1.45201L0.758984 1.88001L1.49398 3.43002L2.39798 3.00202ZM7.29898 3.08301L6.59298 1.46001L5.67598 1.85801L6.38198 3.48101L7.29898 3.08301ZM3.74998 3.77302C4.03243 3.65306 4.33812 3.59772 4.6447 3.61104C4.95127 3.62436 5.251 3.70601 5.52198 3.85001L7.18198 4.67601C7.96798 5.09501 8.30598 6.16001 7.63598 6.91201C7.33598 7.28501 6.87198 7.44201 6.45598 7.44201H5.71998C5.52798 7.44201 5.38398 7.51602 5.31698 7.60202L5.31098 7.60901L4.88398 8.13601C4.58298 8.51701 4.11498 8.67601 3.69498 8.67601C2.77798 8.67601 2.03398 7.81001 2.22498 6.89801L2.59198 5.13301L2.60198 5.09301C2.75898 4.56901 3.15098 4.01902 3.74998 3.77302ZM1.72298 5.53201L0.987984 3.98001L0.0839844 4.40801L0.818984 5.95901L1.72298 5.53201ZM11.051 8.07801L11.786 6.52801L10.883 6.09801L10.148 7.64901L11.051 8.07801ZM13.506 9.19501L14.241 7.64501L13.337 7.21601L12.602 8.76702L13.506 9.19501ZM8.61798 9.24602L9.32399 7.62301L8.40698 7.22401L7.69998 8.84702L8.61798 9.24602ZM9.44298 9.69102C9.70507 9.49967 10.0152 9.38496 10.3387 9.35971C10.6622 9.33446 10.9864 9.39966 11.275 9.54802C11.866 9.80202 12.251 10.354 12.402 10.933L12.408 10.957L12.776 12.721C12.962 13.611 12.306 14.5 11.305 14.5C10.885 14.5 10.417 14.34 10.116 13.96L9.68298 13.426C9.61598 13.34 9.47298 13.265 9.27998 13.265H8.54298C8.12298 13.265 7.65298 13.105 7.35198 12.72C7.21831 12.5501 7.12349 12.3529 7.07419 12.1424C7.02489 11.9319 7.02232 11.7132 7.06664 11.5015C7.11096 11.2899 7.20111 11.0906 7.33075 10.9176C7.46038 10.7445 7.62635 10.602 7.81698 10.5L7.82998 10.493L9.44298 9.69102ZM14.18 11.725L14.916 10.175L14.012 9.74502L13.277 11.296L14.18 11.725Z" fill="white"/>
</g>
<defs>
<clipPath id="clip0_4_8">
<rect width="15" height="15" fill="white"/>
</clipPath>
</defs>
</svg>
